<?xml version="1.0" encoding="utf-8"?>
<!-- Generator: Adobe Illustrator 19.2.1, SVG Export Plug-In . SVG Version: 6.00 Build 0)  -->
<svg version="1.1" id="レイヤー_1" xmlns="http://www.w3.org/2000/svg" xmlns:xlink="http://www.w3.org/1999/xlink" x="0px"
	 y="0px" viewBox="0 0 1456 449.3" style="enable-background:new 0 0 1456 449.3;" xml:space="preserve">
<style type="text/css">
	.st0{fill:#E7E9EA;}
	.st1{fill:#57676E;fill-opacity:0.66;}
	.st2{fill:none;stroke:#FF5050;stroke-width:4;stroke-miterlimit:10;}
	.st3{fill:#34454C;}
	.st4{fill:#57676E;}
	.st5{fill:none;stroke:#FF5050;stroke-width:4;stroke-linecap:round;stroke-miterlimit:10;}
	.st6{fill:#FFFFFF;}
	.st7{fill:#FFFFFF;stroke:#FF5050;stroke-width:4;stroke-miterlimit:10;}
</style>
<path class="st0" d="M1440.7,449.3H15.3C6.9,449.3,0,442.5,0,434V15.3C0,6.9,6.9,0,15.3,0h1425.4c8.5,0,15.3,6.9,15.3,15.3V434
	C1456,442.5,1449.2,449.3,1440.7,449.3z"/>
<path class="st1" d="M1318.8,102.1H137.2c-12.4,0-22.4-10.1-22.4-22.4v-9.8c0-12.4,10.1-22.4,22.4-22.4h1181.6
	c12.4,0,22.4,10.1,22.4,22.4v9.8C1341.3,92,1331.2,102.1,1318.8,102.1z"/>
<g>
	<line class="st2" x1="726.1" y1="215" x2="726.1" y2="295.7"/>
	<path class="st3" d="M897.8,228.1h-340c-5.5,0-10-4.5-10-10v-66c0-5.5,4.5-10,10-10h340c5.5,0,10,4.5,10,10v66
		C907.8,223.6,903.3,228.1,897.8,228.1z"/>
	<path class="st4" d="M897.8,401.5h-340c-5.5,0-10-4.5-10-10v-66c0-5.5,4.5-10,10-10h340c5.5,0,10,4.5,10,10v66
		C907.8,397.1,903.3,401.5,897.8,401.5z"/>
	<path class="st4" d="M466.7,401.5h-340c-5.5,0-10-4.5-10-10v-66c0-5.5,4.5-10,10-10h340c5.5,0,10,4.5,10,10v66
		C476.7,397.1,472.3,401.5,466.7,401.5z"/>
	<path class="st4" d="M1329.1,401.5h-340c-5.5,0-10-4.5-10-10v-66c0-5.5,4.5-10,10-10h340c5.5,0,10,4.5,10,10v66
		C1339.1,397.1,1334.6,401.5,1329.1,401.5z"/>
	<polyline class="st5" points="1156.3,295.7 1156.3,266.9 296,266.9 296,295.7 	"/>
	<g>
		<path class="st6" d="M624,185c-1.9,0-2.7,0-3.8,0.2v-3.6c1.1,0.2,1.8,0.2,3.8,0.2h5.4v-5.2h-3.7c-2.2,0-2.8,0-3.8,0.1V173
			c1.1,0.2,1.7,0.2,3.9,0.2h13.7c2.2,0,2.8,0,3.9-0.2v3.6c-1-0.1-1.7-0.1-3.8-0.1h-6.5v5.2h8.3c2,0,2.7,0,3.8-0.2v3.6
			c-1-0.1-1.8-0.2-3.8-0.2h-8.4v4.8c0,1.8,0.2,2.3,0.8,2.6c0.6,0.3,1.5,0.4,3.1,0.4c1.1,0,2.9-0.1,4.5-0.2c1.1-0.1,1.7-0.2,2.8-0.5
			l0.1,3.8c-0.2,0-0.4,0-0.5,0c-0.3,0-0.3,0-2.4,0.2c-1.3,0.1-3.3,0.2-4.8,0.2c-5.8,0-7.2-1-7.2-5.2V185H624z"/>
		<path class="st6" d="M651.9,182.1c1.3,0.2,1.9,0.2,4.9,0.2h16c3,0,3.5,0,4.9-0.2v4.2c-1.2-0.2-1.5-0.2-4.9-0.2h-15.9
			c-3.4,0-3.7,0-4.9,0.2V182.1z"/>
		<path class="st6" d="M690.7,172.5c-0.1,0.8-0.1,0.8-0.3,6.7c-0.2,5.8-0.9,9.2-2.4,12.3c-1,2.1-2.2,3.6-4.1,5.5
			c-1.2-1.5-1.6-2-3-2.9c1.5-1.2,2.2-2,3.1-3.4c2.2-3.4,2.8-7.3,2.8-15.7c0-1.6,0-1.9-0.1-2.7L690.7,172.5z M698.7,172.1
			c-0.2,0.9-0.2,1.4-0.2,2.8l-0.2,17.1c2.1-1,3.3-1.9,4.6-3.4c1.4-1.6,2.3-3.3,2.9-5.5c1.1,1.4,1.4,1.7,2.8,2.8
			c-1.2,3-2.8,5.2-4.8,7c-1.7,1.5-3.3,2.4-6.4,3.6c-0.7,0.2-0.9,0.4-1.3,0.5l-1.9-2c0.2-0.9,0.2-1.5,0.3-3.2l0.2-16.9V174
			c0-0.8,0-1.4-0.1-2L698.7,172.1z"/>
		<path class="st6" d="M713.3,182c0.8,0.1,1.3,0.1,2.4,0.1h2.2c0.9,0,1.6,0,2.3-0.1c-0.1,0.9-0.1,1.6-0.1,3.3v6.7
			c0.8,1.3,1.5,1.9,3.1,2.3c1.1,0.3,2.9,0.5,6.9,0.5c4.9,0,8.4-0.1,11.3-0.5c-0.5,1.3-0.7,2-0.9,3.2c-4,0.2-6.6,0.2-10,0.2
			c-1.8,0-4.3-0.1-5.6-0.2c-2.9-0.2-4.7-1.1-6.4-3.2c-1.5,1.4-2.1,1.9-3.5,2.8c-0.2,0.2-0.5,0.4-0.9,0.7l-1.5-3.4
			c1.1-0.5,2.5-1.4,4.3-2.9v-6.4h-1.6c-0.8,0-1.2,0-2,0.1V182z M715.8,170.8c2.4,2.4,2.9,3,4.5,5.3l-2.4,2.6c-1.6-2.5-2.7-4-4.5-5.6
			L715.8,170.8z M724.9,178c-0.9,0-1.5,0-2.2,0.1v-1.1h-2c0.1-0.6,0.1-1.1,0.1-1.8v-1.9c0-0.8,0-1.4-0.1-2c0.9,0.1,1.6,0.1,2.9,0.1
			h14c1.2,0,1.9,0,2.9-0.1c-0.1,0.6-0.1,1.1-0.1,1.9v1.8c0,0.8,0,1.4,0.1,2h-2.2v1.1c-0.7-0.1-1.1-0.1-2.2-0.1h-4.3v1.3h4.6
			c1.3,0,1.8,0,2.5-0.1c-0.1,0.7-0.1,1.3-0.1,2.2v4.5c0,1,0,1.5,0.1,2.2c-1-0.1-1.5-0.1-2.5-0.1h-4.6v1.4h6c1.2,0,1.7,0,2.4-0.1v2.8
			c-0.8-0.1-1.3-0.1-2.5-0.1h-5.9c0,1,0.1,1.5,0.2,2.2h-3.4c0.1-0.8,0.1-1.2,0.2-2.2h-5.5c-1,0-1.7,0-2.4,0.2v-2.9
			c0.7,0.1,1.5,0.1,2.4,0.1h5.6v-1.4h-4.3c-1.1,0-1.5,0-2.4,0.1c0.1-0.7,0.1-1,0.1-2.2v-4.5c0-1.3,0-1.6-0.1-2.2
			c0.7,0.1,1.3,0.1,2.4,0.1h4.3V178H724.9z M728.8,174.1h-5v1.4c0.3,0,0.5,0,0.9,0h4.1V174.1z M725.2,181.4v1.3h3.6v-1.3H725.2z
			 M725.2,184.7v1.3h3.6v-1.3H725.2z M736.4,175.6c0.2,0,0.2,0,0.8,0v-1.5h-5.4v1.5H736.4z M731.8,182.7h3.9v-1.3h-3.9V182.7z
			 M731.8,185.9h3.9v-1.3h-3.9V185.9z"/>
		<path class="st6" d="M750.9,174.4c-0.5-1-1-1.9-1.9-3l3.3-0.7c0.9,1.3,1.7,2.5,2.3,3.7h2.8c-0.4-1-1-2.3-1.7-3.4l3.4-0.5
			c0.6,1.1,1.4,2.8,1.8,4h2.2c0.8-1.2,1.6-2.6,2.1-4l3.5,0.8c-0.5,0.9-1.4,2.4-2,3.2h1.8c1.5,0,2.3,0,3.2-0.1
			c-0.1,0.8-0.1,1.5-0.1,2.7v2.4c0,1,0,1.6,0.1,2.4h-3.3v-4.5H749v4.5h-3.3c0.1-0.8,0.1-1.5,0.1-2.3V177c0-1,0-1.7-0.1-2.7
			c1,0.1,1.8,0.1,3.2,0.1H750.9z M753.2,186.4c-1.7,0-2.2,0-3.2,0.1c0.1-0.8,0.1-1.4,0.1-2.7V181c0-1,0-1.7-0.1-2.3
			c0.7,0.1,1.3,0.1,2.3,0.1h12.8c0.9,0,1.6,0,2.2-0.1c-0.1,0.5-0.1,1.2-0.1,2.4v2.8c0,1.6,0,2,0.1,2.7c-1-0.1-1.7-0.1-3.1-0.1h-4.3
			c-0.3,0.8-0.6,1.3-1,2.1h8c1.4,0,2.1,0,2.8-0.1c-0.1,0.8-0.1,1.4-0.1,2.9v3.9c0,1.4,0,2.1,0.2,2.9h-3.4V197H751v1.2h-3.3
			c0.1-1,0.1-2,0.1-3v-3.9c0-1.4-0.1-2-0.1-2.9c0.8,0.1,1.5,0.1,2.8,0.1h4.9c0.5-0.8,0.8-1.4,1.1-2.1H753.2z M751,194.1h15.4v-2.9
			H751V194.1z M753.3,183.9h10.8v-2.5h-10.8V183.9z"/>
		<path class="st6" d="M783.2,180.3c-1.9,1.2-2.7,1.6-4.8,2.6c-0.5-1.2-1-2-1.7-3.1c3.2-1.3,5.3-2.4,7.5-4.2c2-1.5,3.5-3.1,4.7-5
			h3.6c1.6,2.2,2.8,3.4,5.1,5c2.5,1.8,5,3.1,7.7,4c-0.8,1.3-1.2,2.1-1.7,3.4c-1.9-0.8-3-1.4-5.1-2.7v2.3c-0.8-0.1-1.6-0.1-2.7-0.1
			h-10c-0.9,0-1.8,0-2.6,0.1V180.3z M781.5,188.1c-1.5,0-2.5,0.1-3.5,0.2v-3.5c1,0.1,2.1,0.2,3.5,0.2h18.7c1.5,0,2.5-0.1,3.5-0.2
			v3.5c-1-0.1-2-0.2-3.5-0.2h-10.3c-0.9,2.2-1.9,4-3.1,5.8c5.3-0.3,5.3-0.3,9.5-0.8c-1-1-1.5-1.6-3.2-3.3l3-1.3
			c3.2,3.2,4.5,4.7,6.9,8l-2.9,1.9c-1-1.5-1.3-1.9-1.8-2.6c-2.5,0.3-4.3,0.5-5.4,0.7c-3,0.3-8.9,0.8-10.1,0.9
			c-1.7,0.1-3.2,0.3-3.9,0.4l-0.5-3.7c0.8,0.1,1.3,0.1,1.7,0.1c0.2,0,1.1,0,2.6-0.1c1.5-2.2,2.4-4,3.2-6H781.5z M795.7,179.4
			c0.5,0,0.8,0,1.3,0c-2.8-1.9-4.5-3.5-6.3-5.8c-1.6,2.1-3.5,3.9-6.2,5.8c0.5,0,0.7,0,1.2,0H795.7z"/>
		<path class="st6" d="M816.9,195.1c0,1.4,0,2.2,0.1,3.1h-3.6c0.2-0.9,0.2-1.7,0.2-3.1v-7.5c-1.2,1.1-1.8,1.6-3.3,2.5
			c-0.4-1.1-0.9-2.2-1.5-3.1c2.1-1.2,3.5-2.3,5.2-4c1.4-1.5,2.3-2.7,3.3-4.6h-4.9c-1.1,0-1.7,0-2.5,0.1v-3.3
			c0.8,0.1,1.4,0.1,2.4,0.1h1.5v-2.5c0-0.8-0.1-1.6-0.2-2.3h3.6c-0.1,0.7-0.2,1.4-0.2,2.3v2.5h1.2c0.9,0,1.3,0,1.7-0.1l1.4,1.6
			c-0.3,0.4-0.4,0.8-0.7,1.3c-1,2.2-1.6,3.1-3,5.1c1.4,1.6,2.8,2.7,4.8,3.8c-0.7,1-1.2,1.8-1.7,2.9c-1.6-1-2.6-1.9-3.9-3.4V195.1z
			 M829.6,193.7h3.6c1.5,0,2.5-0.1,3.4-0.2v3.6c-1.1-0.1-2.2-0.2-3.4-0.2H823c-1.2,0-2.3,0.1-3.4,0.2v-3.6c1,0.1,2,0.2,3.4,0.2h3.3
			V182h-2.3c-1,0-2,0.1-2.9,0.1v-3.4c0.9,0.1,1.7,0.1,2.9,0.1h2.3v-5.3c0-1.2-0.1-1.9-0.2-3.1h3.7c-0.2,1.2-0.2,1.8-0.2,3.1v5.3h3.2
			c1.3,0,2.1,0,2.9-0.1v3.4c-1-0.1-1.9-0.1-2.9-0.1h-3.2V193.7z"/>
	</g>
	<g>
		<path class="st6" d="M656.8,352.3c-0.1,0.6-0.1,0.6-0.1,2.4c-0.1,5.1-0.9,8-3,10.6c-1.8,2.3-4,3.8-7.7,5.4
			c-0.8-1.6-1.2-2.2-2.4-3.4c2.4-0.7,3.8-1.4,5.2-2.5c3.1-2.4,4-5,4-10.7c0-0.9,0-1.2-0.2-1.8H656.8z M668.9,348.5
			c-0.4,0.5-0.4,0.5-1.2,2.1c-1,2.2-2.8,4.5-4.6,6c-1.2,1-2.2,1.7-3.6,2.5c-0.9-1.3-1.3-1.7-2.7-2.7c2-0.9,3.2-1.6,4.4-2.8
			c1.2-1.1,2.2-2.4,2.9-3.8h-15.8c-2.1,0-2.8,0-4.1,0.2v-3.7c1.1,0.2,2.1,0.2,4.1,0.2H664c1.8,0,2.1,0,2.9-0.3L668.9,348.5z"/>
		<path class="st6" d="M681.7,347.4c-0.1,0.4-0.2,0.7-0.4,2.3c-0.6,4.1-1.4,7.4-2.4,10.3c-1.4,3.7-2.9,6.4-5.3,9.3
			c-1.4-1.4-1.9-1.7-3.4-2.6c1.8-1.8,3-3.6,4.3-6.4c1.3-2.8,2.3-6.5,2.8-10.3c0.2-1.2,0.3-2.3,0.3-2.9c0-0.1,0-0.2,0-0.4
			L681.7,347.4z M690.2,346.7c0.1,1.7,0.6,4.3,1.3,6.9c1.4,5.5,3.4,9.3,6.7,13c-1.6,1-2.1,1.4-3.3,2.8c-2.1-2.6-3.7-5.3-5.1-8.8
			c-1.3-3.1-2.3-7.2-2.8-10.9c-0.2-1.1-0.3-1.7-0.4-2.2L690.2,346.7z M698.2,349.2c0,1.8-1.5,3.3-3.3,3.3c-1.8,0-3.3-1.5-3.3-3.3
			c0-1.8,1.5-3.3,3.3-3.3S698.2,347.4,698.2,349.2z M693.2,349.2c0,0.9,0.8,1.7,1.7,1.7s1.7-0.8,1.7-1.7c0-1-0.8-1.7-1.7-1.7
			C694,347.5,693.2,348.3,693.2,349.2z"/>
		<path class="st6" d="M709.5,345.6c-0.1,0.8-0.2,1.6-0.2,3l-0.2,17.1c3.1-0.6,5.9-1.7,8.2-3.3c2.8-1.9,4.6-4,6.1-6.9
			c1.2,1.6,1.6,2,2.8,3.1c-2.1,3.2-4,5.2-6.7,7c-3,2-6.1,3.2-10.9,4.1c-0.8,0.2-1.2,0.3-1.8,0.5l-1.9-2.3c0.2-0.8,0.3-1.3,0.3-3.1
			l0.1-16.2c0-2.1,0-2.1-0.1-3.1L709.5,345.6z"/>
		<path class="st6" d="M739.2,345.9c-0.1,0.8-0.1,0.8-0.3,6.7c-0.2,5.8-0.9,9.2-2.4,12.3c-1,2.1-2.2,3.6-4.1,5.5
			c-1.2-1.5-1.6-2-3-2.9c1.5-1.2,2.2-2,3.1-3.4c2.2-3.5,2.8-7.3,2.8-15.7c0-1.6,0-1.9-0.1-2.7L739.2,345.9z M747.2,345.6
			c-0.2,0.9-0.2,1.4-0.2,2.8l-0.2,17.1c2.1-1,3.3-1.9,4.6-3.4c1.4-1.6,2.3-3.3,2.9-5.5c1.1,1.3,1.4,1.7,2.8,2.8
			c-1.2,3-2.8,5.2-4.8,7c-1.7,1.5-3.3,2.4-6.4,3.6c-0.7,0.2-0.9,0.4-1.3,0.5l-1.9-2c0.2-0.9,0.2-1.5,0.3-3.2l0.2-16.9v-0.9
			c0-0.8,0-1.4-0.1-2L747.2,345.6z"/>
		<path class="st6" d="M766,369.5c-1.7,0-2.6,0-3.8,0.1c0.2-1.3,0.3-2.1,0.3-4v-16.3c0-1.4-0.1-2.5-0.2-3.7c1.3,0.1,1.7,0.1,3.8,0.1
			h7.1c4.6,0,7.3,2.1,7.3,5.8c0,1.8-0.5,3.2-1.7,4.2c-0.7,0.6-1.2,0.9-2.4,1.3c1.5,0.3,2.2,0.6,3,1.4c1.2,1.1,1.9,2.6,1.9,4.6
			c0,4.2-2.8,6.6-7.8,6.6H766z M772.7,355.4c2.3,0,3.6-1.2,3.6-3.3c0-1-0.3-1.8-0.8-2.2c-0.7-0.6-1.7-0.9-2.9-0.9h-6.2v6.4H772.7z
			 M766.4,366.1h6.5c2.7,0,4.2-1.3,4.2-3.8c0-1.2-0.3-2-1-2.6c-0.8-0.7-1.9-1-3.3-1h-6.4V366.1z"/>
		<path class="st6" d="M794,368.6c0,1.4,0,2.2,0.1,3.1h-3.6c0.2-0.9,0.2-1.7,0.2-3.1V361c-1.2,1.1-1.8,1.6-3.3,2.5
			c-0.4-1.1-0.9-2.2-1.5-3.1c2.1-1.2,3.5-2.3,5.2-4c1.4-1.5,2.3-2.7,3.3-4.6h-4.9c-1.1,0-1.7,0-2.5,0.1v-3.3
			c0.8,0.1,1.4,0.1,2.4,0.1h1.5v-2.5c0-0.8-0.1-1.6-0.2-2.3h3.6c-0.1,0.7-0.2,1.3-0.2,2.3v2.5h1.2c0.9,0,1.3,0,1.7-0.1l1.4,1.6
			c-0.3,0.5-0.5,0.8-0.7,1.3c-1,2.2-1.6,3.2-3,5.1c1.4,1.6,2.8,2.7,4.8,3.8c-0.7,1-1.2,1.8-1.7,2.9c-1.6-1-2.6-1.9-3.9-3.4V368.6z
			 M806.7,367.2h3.6c1.5,0,2.5-0.1,3.4-0.2v3.6c-1.1-0.2-2.2-0.2-3.4-0.2H800c-1.2,0-2.3,0.1-3.4,0.2V367c1,0.1,2,0.2,3.4,0.2h3.3
			v-11.7h-2.3c-1,0-2,0.1-2.9,0.2v-3.4c0.9,0.1,1.7,0.1,2.9,0.1h2.3v-5.3c0-1.2-0.1-2-0.2-3.1h3.7c-0.2,1.2-0.2,1.8-0.2,3.1v5.3h3.2
			c1.3,0,2.1,0,2.9-0.1v3.4c-1-0.1-1.9-0.2-2.9-0.2h-3.2V367.2z"/>
	</g>
	<g>
		<path class="st6" d="M225.8,352.3c-0.1,0.6-0.1,0.6-0.1,2.4c-0.1,5.1-0.9,8-3,10.6c-1.8,2.3-4,3.8-7.7,5.4
			c-0.8-1.6-1.2-2.2-2.4-3.4c2.4-0.7,3.8-1.4,5.2-2.5c3.1-2.4,4-5,4-10.7c0-0.9,0-1.2-0.2-1.8H225.8z M238,348.5
			c-0.4,0.5-0.4,0.5-1.2,2.1c-1,2.2-2.8,4.5-4.6,6c-1.2,1-2.2,1.7-3.6,2.5c-0.9-1.3-1.3-1.7-2.7-2.7c2-0.9,3.2-1.6,4.4-2.8
			c1.2-1.1,2.2-2.4,2.9-3.8h-15.8c-2.1,0-2.8,0-4.1,0.2v-3.7c1.1,0.2,2.1,0.2,4.1,0.2h15.7c1.8,0,2.1,0,2.9-0.3L238,348.5z"/>
		<path class="st6" d="M250.8,347.4c-0.1,0.4-0.2,0.7-0.4,2.3c-0.6,4.1-1.3,7.4-2.4,10.3c-1.4,3.7-2.9,6.4-5.3,9.3
			c-1.4-1.4-1.9-1.7-3.4-2.6c1.8-1.8,3-3.6,4.3-6.4c1.3-2.8,2.3-6.5,2.8-10.3c0.2-1.2,0.3-2.3,0.3-2.9c0-0.1,0-0.2,0-0.4
			L250.8,347.4z M259.3,346.7c0.1,1.7,0.6,4.3,1.3,6.9c1.4,5.5,3.4,9.3,6.7,13c-1.6,1-2.1,1.4-3.3,2.8c-2.1-2.6-3.7-5.3-5.1-8.8
			c-1.3-3.1-2.3-7.2-2.8-10.9c-0.2-1.1-0.3-1.7-0.4-2.2L259.3,346.7z M267.3,349.2c0,1.8-1.5,3.3-3.3,3.3c-1.8,0-3.3-1.5-3.3-3.3
			c0-1.8,1.5-3.3,3.3-3.3S267.3,347.4,267.3,349.2z M262.3,349.2c0,0.9,0.8,1.7,1.7,1.7s1.7-0.8,1.7-1.7c0-1-0.8-1.7-1.7-1.7
			C263,347.5,262.3,348.3,262.3,349.2z"/>
		<path class="st6" d="M278.6,345.6c-0.1,0.8-0.2,1.6-0.2,3l-0.1,17.1c3.1-0.6,5.9-1.7,8.2-3.3c2.8-1.9,4.6-4,6.1-6.9
			c1.2,1.6,1.6,2,2.8,3.1c-2.1,3.2-4,5.2-6.7,7c-3,2-6.1,3.2-10.9,4.1c-0.8,0.2-1.2,0.3-1.8,0.5l-1.9-2.3c0.2-0.8,0.3-1.3,0.3-3.1
			l0.1-16.2c0-2.1,0-2.1-0.1-3.1L278.6,345.6z"/>
		<path class="st6" d="M308.3,345.9c-0.1,0.8-0.1,0.8-0.3,6.7c-0.2,5.8-0.9,9.2-2.4,12.3c-1,2.1-2.2,3.6-4.1,5.5
			c-1.2-1.5-1.6-2-3-2.9c1.5-1.2,2.2-2,3.1-3.4c2.2-3.5,2.8-7.3,2.8-15.7c0-1.6,0-1.9-0.1-2.7L308.3,345.9z M316.3,345.6
			c-0.2,0.9-0.2,1.4-0.2,2.8l-0.2,17.1c2.1-1,3.3-1.9,4.6-3.4c1.4-1.6,2.3-3.3,2.9-5.5c1.1,1.3,1.4,1.7,2.8,2.8
			c-1.2,3-2.8,5.2-4.8,7c-1.7,1.5-3.3,2.4-6.4,3.6c-0.7,0.2-0.9,0.4-1.3,0.5l-1.9-2c0.2-0.9,0.2-1.5,0.3-3.2l0.2-16.9v-0.9
			c0-0.8,0-1.4-0.1-2L316.3,345.6z"/>
		<path class="st6" d="M347.2,369.5c-0.2-1-0.5-2.3-0.8-3.1l-1.2-3.3h-9.6l-1.2,3.3c-0.5,1.4-0.7,1.9-0.9,3.1h-4.9
			c0.5-0.8,1-2.2,1.6-3.5l6.6-17.3c0.6-1.5,0.8-2.3,1-3h5.2c0.2,0.7,0.3,1.2,1,3l6.7,17.3c0.8,1.9,1.1,2.8,1.5,3.5H347.2z
			 M340.9,350.8c-0.1-0.3-0.2-0.7-0.5-1.7c-0.5,1.4-0.5,1.4-0.6,1.7l-3.1,8.9h7.4L340.9,350.8z"/>
		<path class="st6" d="M362.7,368.6c0,1.4,0,2.2,0.1,3.1h-3.6c0.2-0.9,0.2-1.7,0.2-3.1V361c-1.2,1.1-1.8,1.6-3.3,2.5
			c-0.4-1.1-0.9-2.2-1.5-3.1c2.1-1.2,3.5-2.3,5.2-4c1.4-1.5,2.3-2.7,3.3-4.6h-4.9c-1.1,0-1.7,0-2.5,0.1v-3.3
			c0.8,0.1,1.4,0.1,2.4,0.1h1.5v-2.5c0-0.8-0.1-1.6-0.2-2.3h3.6c-0.1,0.7-0.2,1.3-0.2,2.3v2.5h1.2c0.9,0,1.3,0,1.7-0.1l1.4,1.6
			c-0.3,0.5-0.4,0.8-0.7,1.3c-1,2.2-1.6,3.2-3,5.1c1.4,1.6,2.8,2.7,4.8,3.8c-0.7,1-1.2,1.8-1.7,2.9c-1.6-1-2.6-1.9-3.9-3.4V368.6z
			 M375.4,367.2h3.6c1.5,0,2.5-0.1,3.4-0.2v3.6c-1.1-0.2-2.2-0.2-3.4-0.2h-10.3c-1.2,0-2.3,0.1-3.4,0.2V367c1,0.1,2,0.2,3.4,0.2h3.3
			v-11.7h-2.3c-1,0-2,0.1-2.9,0.2v-3.4c0.9,0.1,1.7,0.1,2.9,0.1h2.3v-5.3c0-1.2-0.1-2-0.2-3.1h3.7c-0.2,1.2-0.2,1.8-0.2,3.1v5.3h3.2
			c1.3,0,2.1,0,2.9-0.1v3.4c-1-0.1-1.9-0.2-2.9-0.2h-3.2V367.2z"/>
	</g>
	<g>
		<path class="st6" d="M1091.8,355.5c-0.1-0.3-0.1-0.4-0.1-0.6v-5h-1.5c-0.7,3.4-2.1,5.7-4.8,8c-0.6-1.1-1.1-1.7-1.9-2.5
			c2.2-1.5,3.2-3,3.8-5.5h-1c-0.8,0-1.5,0-2.2,0.1v-3.1c0.6,0.1,1.2,0.1,2.3,0.1h1.4c0-0.7,0.1-0.9,0.1-1.3c0-0.6-0.1-1.2-0.1-1.7
			h3.1c-0.1,0.6-0.1,0.7-0.2,1.7c0,0.5-0.1,0.8-0.1,1.3h1.4c1,0,1.7,0,2.4-0.1c-0.1,0.6-0.1,1.2-0.1,2.1v4.5c0,0.2,0.1,0.3,0.4,0.3
			c0.4,0,0.4,0,0.4-2.6c0.8,0.4,0.9,0.4,1.3,0.6c1.8-2.6,3.1-5.6,3.5-8.2l3.2,0.9c-0.2,0.3-0.3,0.7-0.5,1.2c-0.3,0.7-1,2.4-1.3,3.2
			h2.7c0.9-1.7,1.4-3.1,1.9-5l3.2,0.8c-0.9,2.3-1.2,2.9-2,4.3h1c1.3,0,2.3-0.1,3-0.1v3.2c-0.7-0.1-1.7-0.2-3-0.2h-1.1v3.2h1.3
			c1.2,0,1.9,0,2.5-0.2v3c-0.5-0.1-1.4-0.1-2.5-0.1h-1.3v3.3h1.2c1.2,0,1.9,0,2.5-0.2v3c-0.5-0.1-1.4-0.1-2.5-0.1h-1.2v3.5h1.7
			c1.5,0,2.2,0,3-0.1v3.2c-0.8-0.1-1.7-0.2-3-0.2h-7.6v1.4h-3.3c0.1-0.9,0.2-1.8,0.2-3.2v-14.5c-0.3-0.3-0.5-0.4-1-0.8
			c-0.1,1.7-0.2,2.2-0.6,2.7c-0.4,0.5-1.1,0.8-2.1,0.8c-1.1,0-1.5-0.1-2-0.4c0,0.5,0,0.7,0,1.4v0.7h1.9c1.4,0,2,0,2.7-0.2v3.2
			c-0.8-0.1-1.5-0.2-2.7-0.2h-1.4c1.4,2,2.7,3.2,4.6,4.3c-0.7,0.9-1.1,1.6-1.6,2.8c-1.5-1.2-2.6-2.3-3.7-4c0.1,0.8,0.1,1.5,0.1,2.3
			v2.4c0,1.3,0,2.1,0.2,2.8h-3.3c0.1-0.7,0.2-1.4,0.2-2.6v-2.3c0-0.8,0-1.4,0.1-2.3c-1.1,2.2-2.2,3.6-4.2,5.2
			c-0.2-0.5-0.2-0.5-0.7-1.6c-0.4-0.8-0.5-0.9-0.9-1.4c2.2-1.4,3.9-3.3,5.1-5.6h-1.7c-1.3,0-1.9,0-2.7,0.2V358
			c0.7,0.2,1.3,0.2,2.7,0.2h2.3v-0.7c0-0.8-0.1-1.5-0.2-2H1091.8z M1104,354.9v-3.2h-2.9v3.2H1104z M1101.1,361h2.9v-3.3h-2.9V361z
			 M1101.1,367.3h2.9v-3.5h-2.9V367.3z"/>
		<path class="st6" d="M1121.1,353.9c0.1-0.5,0.1-0.9,0.1-1.5v-1c0-0.4,0.1-0.9,0.1-1.4c-1.2,1-1.9,1.4-3.6,2.3
			c-0.4-1.1-0.7-1.5-1.6-2.6c2.3-1,4-2.1,5.7-3.6c1-0.9,1.7-1.7,2-2.4l3.1,1.3c-0.2,0.1-0.2,0.1-0.3,0.3c-0.1,0.2-0.1,0.2-0.3,0.4
			c0,0,0,0-0.4,0.4c-0.3,0.3-1.1,1.1-1.7,1.6v4.1c0,1,0,1.5,0.1,2.1H1121.1z M1123,367c-1.3,0-2.5,0-3.2,0.1c0.1-0.8,0.1-1.8,0.1-3
			v-6.3c0-1.4,0-2.3-0.1-3.1c0.7,0.1,1.7,0.1,3,0.1h14.5c1.6,0,2.2,0,3-0.1c-0.1,0.8-0.1,1.8-0.1,3.3v5.9c0,1.2,0.1,2.6,0.1,3.2
			c-0.6-0.1-2-0.1-3.1-0.1h-1.4c2.2,1,4.4,1.6,8.2,2c-0.8,1.1-1.3,1.8-1.8,2.9c-4.4-0.8-6.2-1.4-9.6-3.4l1.7-1.5h-8.5l1.9,1.4
			c-3.2,1.9-4.9,2.5-9.5,3.4c-0.5-1.1-1-1.7-1.8-2.8c3.8-0.4,5.6-0.9,8.2-2.1H1123z M1123.1,358.2h14.1V357h-14.1V358.2z
			 M1123.1,361.4h14.1v-1.2h-14.1V361.4z M1123.1,364.7h14.1v-1.2h-14.1V364.7z M1131.9,346.8c4-0.6,6.1-1.2,8.5-2.4l2.3,2.4
			c-3.8,1.4-6.5,2-10.8,2.6v0.7c0,0.8,0.4,0.8,3.8,0.8c3.1,0,4-0.1,4.4-0.4c0.4-0.2,0.5-0.8,0.5-2.3c1.2,0.4,1.9,0.6,3,0.8
			c-0.3,2.5-0.6,3.3-1.5,3.8c-0.6,0.3-1.2,0.5-2.3,0.6c-0.7,0.1-3.8,0.2-4.8,0.2c-5.2,0-6.3-0.4-6.3-2.4v-4.5c0-1.1,0-1.7-0.2-2.4
			h3.5c-0.1,0.7-0.2,1.2-0.2,2.2V346.8z"/>
		<path class="st6" d="M1163.1,361c-0.2,0-0.2,0-2.4,0.1c-3.1,0.2-4.5,0.3-5,0.4l-0.4-2.9c0.7,0.1,0.8,0.1,1.3,0.1c1,0,1.8,0,2.3,0
			c0.6-0.9,1-1.6,1.4-2.5h-5.6c-0.2,3.7-0.5,5.9-1,8.5c-0.5,2.7-1.2,4.4-2.4,6.7c-0.9-1.1-1.6-1.8-2.7-2.7c1.1-1.9,1.7-3.4,2.2-5.9
			c0.7-3.3,1-7.7,1-14.7c0-1.5-0.1-2.4-0.2-3.4c1,0.1,2,0.2,3.9,0.2h16.5c1.5,0,2.4,0,3.3-0.2c-0.1,0.9-0.1,1.4-0.1,2.4v2.8
			c0,1,0,1.4,0.1,2.2c-1.1-0.1-2-0.1-3.2-0.1h-17.2l0,1.6h17.6c1.9,0,2.6,0,3.5-0.2v2.9c-1-0.1-1.6-0.1-3.2-0.1h-1.9
			c1.1,1,2.5,2.4,4.5,4.7l-2.7,1.6l-1.5-1.9c-1.6,0.1-1.6,0.1-4.7,0.4v2.5h5.4c1.9,0,2.3,0,3-0.1v2.9c-1-0.1-1.7-0.1-3-0.1h-5.3v2.2
			h6.6c2.1,0,2.9,0,3.6-0.1v3c-1-0.1-2-0.2-4-0.2h-15.3c-1.7,0-2.8,0.1-3.8,0.2v-3c0.8,0.1,1.6,0.1,3.5,0.1h6.1V366h-4.4
			c-1.3,0-2.2,0-3.1,0.1v-2.9c0.8,0.1,1.3,0.1,3.1,0.1h4.4V361z M1172.1,349.4v-2h-17.2v2H1172.1z M1163.6,356.2
			c-0.6,1.1-0.9,1.6-1.5,2.4c2.4-0.1,3.9-0.1,4.6-0.2c0.2,0,1-0.1,2.3-0.1c-0.5-0.5-0.8-0.8-1.6-1.4l1.4-0.7H1163.6z"/>
		<path class="st6" d="M1202.3,362.2c-0.6,2.2-1.1,3.3-2,4.5c-1.7,2.1-4.6,3.3-8.2,3.3c-3.3,0-5.9-1-7.7-2.9
			c-2.1-2.2-3.3-5.6-3.3-9.4c0-4,1.3-7.4,3.5-9.7c1.8-1.8,4.5-2.8,7.5-2.8c2.3,0,4.1,0.5,5.8,1.4c1.3,0.8,2.4,2,3.2,3.3
			c0.4,0.6,0.6,1.2,0.9,2.3l-4.2,1c-0.4-1.3-0.7-1.9-1.3-2.6c-1-1.2-2.5-1.9-4.4-1.9c-4.3,0-6.8,3.3-6.8,8.8c0,5.5,2.6,8.9,6.8,8.9
			c2.1,0,3.9-0.8,4.9-2.2c0.5-0.8,0.8-1.4,1-2.8L1202.3,362.2z"/>
		<path class="st6" d="M1214.7,368.6c0,1.4,0,2.2,0.1,3.1h-3.6c0.2-0.9,0.2-1.7,0.2-3.1V361c-1.2,1.1-1.8,1.6-3.3,2.5
			c-0.4-1.1-0.9-2.2-1.5-3.1c2.1-1.2,3.5-2.3,5.2-4c1.4-1.5,2.3-2.7,3.3-4.6h-4.9c-1.1,0-1.7,0-2.5,0.1v-3.3
			c0.8,0.1,1.4,0.1,2.4,0.1h1.5v-2.5c0-0.8-0.1-1.6-0.2-2.3h3.6c-0.1,0.7-0.2,1.3-0.2,2.3v2.5h1.2c0.9,0,1.3,0,1.7-0.1l1.4,1.6
			c-0.3,0.5-0.4,0.8-0.7,1.3c-1,2.2-1.6,3.2-3,5.1c1.4,1.6,2.8,2.7,4.8,3.8c-0.7,1-1.2,1.8-1.7,2.9c-1.6-1-2.6-1.9-3.9-3.4V368.6z
			 M1227.4,367.2h3.6c1.5,0,2.5-0.1,3.4-0.2v3.6c-1.1-0.2-2.2-0.2-3.4-0.2h-10.3c-1.2,0-2.3,0.1-3.4,0.2V367c1,0.1,2,0.2,3.4,0.2
			h3.3v-11.7h-2.3c-1,0-2,0.1-2.9,0.2v-3.4c0.9,0.1,1.7,0.1,2.9,0.1h2.3v-5.3c0-1.2-0.1-2-0.2-3.1h3.7c-0.2,1.2-0.2,1.8-0.2,3.1v5.3
			h3.2c1.3,0,2.1,0,2.9-0.1v3.4c-1-0.1-1.9-0.2-2.9-0.2h-3.2V367.2z"/>
	</g>
	<circle class="st7" cx="296.2" cy="300.5" r="6"/>
	<circle class="st7" cx="726.2" cy="300.5" r="6"/>
	<circle class="st7" cx="1156.3" cy="300.5" r="6"/>
</g>
<g>
	<path class="st6" d="M405.5,85c0,1.8,0,2.7,0.1,3.7h-2.1c0.1-1.1,0.2-2,0.2-3.7v-8.7c0-1.7,0-2.8,0.1-4.4c-0.8,1.7-1.4,2.7-2.6,4.3
		c-0.6-1-0.7-1.2-1.2-1.7c1.5-1.7,2.8-3.8,3.9-6c1.1-2.3,1.9-4.7,2.3-6.7l1.9,0.6c-0.1,0.4-0.3,0.8-0.5,1.3c-0.5,1.7-1,3-2.1,5.3V85
		z M411.8,71.2c-0.9,2.8-2.2,5-4.2,7.4c-0.5-0.7-0.8-1.1-1.3-1.5c2.9-3.2,4.4-6.6,5-11.7h-0.7c-1.2,0-1.7,0-2.5,0.2v-2
		c0.7,0.1,1.5,0.1,2.7,0.1h5.1c1.3,0,2.1,0,2.9-0.1v2c-0.8-0.1-1.5-0.2-2.7-0.2h-3c-0.3,2-0.5,2.8-0.8,4.1h3.4c1.2,0,1.9,0,2.4-0.1
		c0,0.3,0,0.3-0.1,0.5l-0.3,2c-0.6,4-1.9,7.7-3.9,10.7c-1.6,2.4-3.3,4.1-5.8,6c-0.5-0.7-0.8-1-1.4-1.5c3.3-2.2,5.4-4.6,7.1-8
		c-1.1-1.3-1.8-2-3.3-3.3l1-1.5c1.5,1.3,2.2,2,3.1,3c0.8-2,1.1-3.3,1.5-6.3H411.8z M427,86.2c0,1.8-0.7,2.3-3.3,2.3
		c-0.8,0-2,0-3.4-0.1c-0.1-0.9-0.2-1.2-0.5-1.9c1.7,0.2,3,0.3,3.9,0.3c1.2,0,1.4-0.1,1.4-0.8V65.8c0-1.6,0-2.3-0.2-3.4h2.2
		c-0.1,0.8-0.2,1.8-0.2,3.4V86.2z M419.8,81.7c0.1-0.8,0.2-1.7,0.2-3.1V66.9c0-1.4,0-2.2-0.2-3.1h2.2c-0.2,0.8-0.2,1.6-0.2,3.1v11.7
		c0,1.5,0,2.3,0.1,3.1H419.8z"/>
	<path class="st6" d="M440.4,70.3h-3v-3h3V70.3z M437.4,83.5v-3h3v3H437.4z"/>
	<path class="st6" d="M451.9,70.9c2.9,1.2,5,2.3,7.6,3.9l-1.2,2c-2.2-1.6-4.9-3.1-7.7-4.1L451.9,70.9z M451.1,84.6
		c1.9,0,5.1-0.7,8.1-1.9c3.7-1.4,6.6-3.5,9-6.7c1.7-2.2,2.7-4.1,3.6-6.7c0.8,0.8,1,1,1.9,1.6c-2.6,6.2-6.3,10.3-11.5,12.9
		c-2.1,1-5.1,2.1-7.6,2.6c-0.5,0.1-1,0.2-1.6,0.3s-0.7,0.2-1.2,0.3L451.1,84.6z M454.3,63.7c2.9,1.2,4.9,2.2,7.4,3.8l-1.2,2
		c-2.1-1.5-5.2-3.2-7.4-4L454.3,63.7z"/>
	<path class="st6" d="M483.6,86.9c-1.6,0-1.9,0-2.6,0.1V85c0.7,0.1,1.5,0.2,2.6,0.2h11.5v-5.6h-10.6c-1.6,0-1.8,0-2.6,0.1v-2
		c0.7,0.1,1.4,0.2,2.6,0.2h10.5v-5.2h-11.2c-1.6,0-1.9,0-2.6,0.1v-2.1c0.7,0.1,1.4,0.2,2.6,0.2H495c1,0,1.5,0,2-0.1
		c0,0.8,0,1.3,0,2.3v13.6c0,1,0,1.4,0.1,1.9h-2.1v-1.5H483.6z"/>
	<path class="st6" d="M508.7,70.3c1.2,2.1,1.9,3.5,3,6.7l-2,0.7c-0.7-2.6-1.6-4.6-2.8-6.7L508.7,70.3z M525.6,70.2
		c-0.2,0.5-0.2,0.5-0.7,2.4c-0.5,2.1-1.6,4.9-2.6,6.7c-2.1,3.7-5.3,6.4-9.9,8.7c-0.5-0.8-0.7-1-1.4-1.7c4.6-2.1,7.4-4.4,9.5-7.8
		c1.1-1.9,2-4.1,2.5-6.4c0.2-1,0.3-1.7,0.3-2v-0.1c0-0.1,0-0.1,0-0.2L525.6,70.2z M514.8,69.1c1.6,2.8,2.1,4,2.9,6.4l-2,0.7
		c-0.5-2.1-1.5-4.3-2.8-6.6L514.8,69.1z"/>
	<path class="st6" d="M536.8,73.5c5-0.9,11.9-3.7,14.2-5.8l1.5,2c-0.5,0.2-0.5,0.2-1.3,0.6c-4.8,2.6-8.9,4.1-14.5,5.1v4.4
		c0,0,0,0.1,0,0.2c0,0.1,0,0.2,0,0.3c0,2.1,0.1,2.8,0.6,3.3c0.4,0.4,1,0.6,2.3,0.8c0.9,0.1,2.3,0.2,3.5,0.2c1.9,0,4.5-0.2,6.9-0.5
		c1.3-0.2,1.9-0.3,3-0.6l0.2,2.4c-0.6,0-0.6,0-2.8,0.3c-1.9,0.2-5.9,0.4-8,0.4c-3.5,0-5.5-0.4-6.6-1.2c-0.7-0.6-1.1-1.5-1.2-2.9
		c0-0.5-0.1-1.1-0.1-2.3V66.4c0-1.2,0-1.7-0.1-2.5h2.5c-0.1,0.8-0.1,1.2-0.1,2.5V73.5z M557.1,64.9c0,1.7-1.4,3.1-3.1,3.1
		s-3.1-1.4-3.1-3.1c0-1.7,1.4-3.1,3.1-3.1S557.1,63.2,557.1,64.9z M552.2,64.9c0,1,0.8,1.8,1.8,1.8c1,0,1.8-0.8,1.8-1.8
		c0-1-0.8-1.8-1.8-1.8C553,63.1,552.2,63.9,552.2,64.9z"/>
	<path class="st6" d="M561.8,84.2c2.3-0.1,5.9-1,8.7-2.3c5.8-2.6,9.8-7,12.2-13.3c0.7,0.9,1,1.2,1.8,1.8c-2.4,5.2-5.2,8.7-9.2,11.5
		c-3.1,2.1-6.2,3.3-11.2,4.5c-0.8,0.2-1,0.2-1.8,0.5L561.8,84.2z M563.7,65.6c3.2,2,5.1,3.5,7.2,5.6l-1.6,1.9
		c-2.2-2.3-4.5-4.3-7.1-5.9L563.7,65.6z"/>
	<path class="st6" d="M601.1,63.2c-0.3,0.4-0.3,0.4-0.7,1.2c-0.8,1.6-1,2.1-1.4,2.6c0.3-0.1,0.5-0.1,1.1-0.1l7.6-0.1
		c1,0,1.1,0,1.5-0.2l1.6,1.6c-0.3,0.4-0.3,0.4-0.6,1.5c-1.2,4-3.4,8.1-5.9,10.9c-2.8,3.2-6.1,5.5-10.4,7.5c-0.5-0.9-0.7-1.1-1.5-1.8
		c4.5-1.8,7.7-4.1,10.6-7.6c2.3-2.8,4.1-6.3,5.2-10l-10.1,0.1c-1.8,3-4.2,5.6-7.2,7.8c-0.5-0.8-0.8-1-1.7-1.5
		c3.2-2.1,5.5-4.6,7.5-8.2c1.1-2,1.7-3.3,1.9-4.3L601.1,63.2z M610.9,63c1.2,1.6,1.8,2.5,2.8,4.3l-1.5,0.8c-0.8-1.6-1.5-2.8-2.8-4.3
		L610.9,63z M613.7,61.7c1.2,1.6,1.8,2.4,2.8,4.3l-1.5,0.8c-0.8-1.6-1.5-2.8-2.8-4.3L613.7,61.7z"/>
	<path class="st6" d="M625.7,66.3c0-1.6,0-1.8-0.1-2.8h2.4c-0.1,0.8-0.2,1.4-0.2,2.8v4.4L640,69c1.1-0.1,1.2-0.2,1.7-0.4l1.5,1.2
		c-0.2,0.3-0.2,0.4-0.5,0.8c-0.8,1.7-1.5,2.8-2.3,3.8c-1.3,1.6-2.9,3.2-5.1,4.7c-0.7-0.8-1-1-1.8-1.4c3.3-2,5.5-4.2,6.8-7
		c-0.3,0.1-0.4,0.1-0.7,0.2c-0.1,0-0.2,0-0.4,0.1c-4.2,0.6-8,1.1-11.5,1.6v7.1c0,2.8,0.1,3.4,0.8,4s1.9,0.8,4.4,0.8
		c3.1,0,6.4-0.4,8.7-1l0.1,2.4c-0.8,0-1,0.1-1.8,0.1c-3,0.4-5.1,0.5-7.1,0.5c-3.4,0-5.2-0.4-6.1-1.4c-0.9-1-1.1-1.9-1.1-5v-7.2
		l-3.6,0.5c-2,0.3-2,0.3-2.9,0.5l-0.3-2.3c0.2,0,0.3,0,0.5,0c0.5,0,1.6-0.1,2.6-0.2l3.8-0.5V66.3z"/>
	<path class="st6" d="M649.1,84.2c2.3-0.1,5.9-1,8.7-2.3c5.8-2.6,9.8-7,12.2-13.3c0.7,0.9,1,1.2,1.8,1.8c-2.4,5.2-5.2,8.7-9.2,11.5
		c-3.1,2.1-6.2,3.3-11.2,4.5c-0.8,0.2-1,0.2-1.8,0.5L649.1,84.2z M651,65.6c3.2,2,5.1,3.5,7.2,5.6l-1.6,1.9
		c-2.2-2.3-4.5-4.3-7.1-5.9L651,65.6z"/>
	<path class="st6" d="M688.8,62.7c-0.4,0.6-0.4,0.6-1.1,2c-0.3,0.6-0.6,1.1-0.9,1.7c0.4-0.1,0.4-0.1,9.3-0.2c0.8,0,1.3-0.1,1.7-0.3
		l1.3,1.3c-0.3,0.5-0.4,0.6-0.9,2c-2.1,5.6-4.7,9.9-7.8,12.9c-2.5,2.4-5.5,4.3-9.5,6.2c-0.5-0.9-0.8-1.2-1.5-1.9
		c2.6-1,4.2-1.9,6.2-3.3c2.3-1.6,3.7-2.8,5.2-4.7c-2.2-1.9-4.4-3.5-6.7-4.9l1.4-1.5c2.5,1.5,4.2,2.6,6.6,4.7
		c1.8-2.7,3.1-5.5,4.2-8.7l-10.5,0.2c-2,3.3-4.2,5.6-7.1,8c-0.7-0.8-1-1-1.7-1.4c3.2-2.3,5.7-5.1,7.6-8.5c1-1.7,1.5-3,1.8-4.1
		L688.8,62.7z"/>
	<path class="st6" d="M705.8,74.1c0.9,0.1,1.7,0.2,3.7,0.2H727c2.2,0,2.7,0,3.6-0.2v2.4c-1-0.1-1.6-0.1-3.7-0.1h-17.4
		c-2.2,0-2.8,0-3.7,0.1V74.1z"/>
	<path class="st6" d="M745.8,69.9c-0.1,0.5-0.1,0.5-0.1,2.1c-0.1,5-0.9,8-3,10.6c-1.8,2.3-4.1,3.8-7.7,5.2c-0.5-1-0.7-1.3-1.4-2
		c2.4-0.7,3.9-1.5,5.5-2.8c3.2-2.5,4.3-5.6,4.3-11.5c0-0.8,0-1-0.1-1.6H745.8z M757.7,66.1c-0.3,0.4-0.4,0.5-0.7,1.2
		c-2.1,4-4.9,6.8-8.8,8.5c-0.4-0.8-0.7-1-1.5-1.7c2.1-0.8,3.3-1.5,4.7-2.9c1.4-1.3,2.5-2.8,3.4-4.5h-17c-1.7,0-2.4,0-3.5,0.2v-2.3
		c1,0.1,1.9,0.2,3.6,0.2h16.1c2,0,2,0,2.5-0.2L757.7,66.1z"/>
	<path class="st6" d="M781.5,65.8c0-0.2-0.1-0.4-0.1-0.6c0-1.7,1.4-3.1,3.1-3.1c1.7,0,3.1,1.4,3.1,3.1c0,1.7-1.4,3.1-3.1,3.1
		c-0.2,0-0.4,0-0.7-0.1c-1.1,3.9-2.5,7.2-4.2,9.6c-1.8,2.5-4.4,5-7.4,6.9c-1.7,1.1-3.1,1.7-5.5,2.7c-0.4-1-0.7-1.3-1.5-2.1
		c2.7-0.8,4.5-1.6,6.8-3.2c4.9-3.3,7.8-7.6,9.4-14.3h-15.3c-1.5,0-2.4,0-3.4,0.2v-2.4c1.1,0.2,1.7,0.2,3.4,0.2h14.8H781.5z
		 M782.7,65.3c0,1,0.8,1.8,1.8,1.8c1,0,1.8-0.8,1.8-1.8c0-1-0.8-1.8-1.8-1.8C783.5,63.5,782.7,64.3,782.7,65.3z"/>
	<path class="st6" d="M796.9,63.7c-0.1,0.7-0.1,1.1-0.1,2.5v8.1c0,1.4,0,1.8,0.1,2.5h-2.5c0.1-0.7,0.1-1.3,0.1-2.5v-8
		c0-1.3,0-1.8-0.1-2.5H796.9z M810.2,63.7c-0.1,0.7-0.2,1.2-0.2,2.6v3.5c0,4.8-0.2,7.4-0.8,9.2c-0.9,2.8-2.8,5-5.7,6.7
		c-1.5,0.8-2.9,1.4-5.5,2.2c-0.3-0.9-0.5-1.2-1.3-2.1c2.7-0.6,4.1-1.1,5.7-2c2.8-1.6,4.2-3.5,4.8-6.3c0.3-1.7,0.4-3.1,0.4-7.6v-3.4
		c0-1.6,0-2-0.1-2.6H810.2z"/>
	<path class="st6" d="M843.7,73.8c0,0.9-0.1,2-0.3,3.2c-0.5,3.5-1.8,6-4.1,7.9c-1.3,1.1-2.8,2-5.3,3c-0.4-0.9-0.7-1.2-1.4-2
		c3.9-1.3,6.4-3.2,7.6-5.9c0.7-1.5,1.1-3.9,1.2-6.2h-8.1c-1.6,0-2.4,0-3.5,0.2v-2.2c1.1,0.2,1.8,0.2,3.5,0.2h17.5
		c1.7,0,2.4,0,3.5-0.2v2.2c-1-0.1-1.9-0.2-3.4-0.2H843.7z M832.8,64.3c1,0.2,1.6,0.2,3.4,0.2H848c1.9,0,2.5,0,3.4-0.2v2.3
		c-0.9-0.1-1.7-0.2-3.4-0.2h-11.7c-1.7,0-2.5,0-3.4,0.2V64.3z"/>
	<path class="st6" d="M880,70.6c1.7,0,2.5,0,3.5-0.2v2.3c-1-0.1-1.9-0.1-3.5-0.1h-6.8c-0.2,4.2-0.8,6.4-2.2,8.7
		c-1.6,2.5-3.9,4.5-7.4,6.3c-0.5-0.9-0.8-1.3-1.5-1.9c3.5-1.4,6-3.5,7.4-6.2c1-1.8,1.3-3.3,1.5-6.9h-8.3c-1.6,0-2.5,0-3.5,0.1v-2.3
		c1.1,0.2,1.8,0.2,3.5,0.2h8.4c0-1.1,0-1.7,0-2.6v-2.2c0-1.2,0-1.8-0.2-2.5h2.5c-0.1,0.8-0.1,0.9-0.1,2.5l0,2.2c0,2.3,0,2.3,0,2.6
		H880z"/>
	<path class="st6" d="M889,84.2c2.3-0.1,5.9-1,8.7-2.3c5.8-2.6,9.8-7,12.2-13.3c0.7,0.9,1,1.2,1.8,1.8c-2.4,5.2-5.2,8.7-9.2,11.5
		c-3.1,2.1-6.2,3.3-11.2,4.5c-0.8,0.2-1.1,0.2-1.8,0.5L889,84.2z M890.9,65.6c3.2,2,5.1,3.5,7.2,5.6l-1.6,1.9
		c-2.2-2.3-4.5-4.3-7.1-5.9L890.9,65.6z"/>
	<path class="st6" d="M920.7,87.7c0.1-0.8,0.2-1.5,0.2-3.1V66c0-1.6-0.1-2.3-0.2-3.1h2.6c-0.1,0.8-0.2,1.4-0.2,3.1v5.6
		c4.6,1.7,8.1,3.3,13.3,6.3l-1.3,2.2c-2.8-2-7-4.2-11.2-5.9c-0.4-0.2-0.7-0.3-0.9-0.5l-0.1,0c0.1,0.6,0.1,1,0.1,1.8v9
		c0,1.7,0,2.3,0.2,3.2H920.7z"/>
	<path class="st6" d="M965.5,64.5c-0.5,0.4-0.6,0.4-1.3,1.3c-1.9,2-4.4,4.2-7,6v12.8c0,1.7,0,2.4,0.2,3.2h-2.6
		c0.1-0.8,0.2-1.5,0.2-3.1V73.2c-3.9,2.4-6.1,3.4-11.6,5.2c-0.4-1-0.6-1.3-1.2-2c5.6-1.5,10.8-4,15.6-7.8c2.8-2.2,4.9-4.3,5.7-5.7
		L965.5,64.5z"/>
	<path class="st6" d="M988.6,64.5c-0.4,0.6-0.5,0.8-0.9,1.8c-1.9,4.6-2.9,6.4-4.4,8.8c2.6,2.1,4.5,4,6.9,6.5l-1.7,1.9
		c-1.6-2-3.5-4-6.5-6.5c-3.1,4.3-6.8,7.5-12.1,10.4c-0.5-0.9-0.8-1.2-1.6-1.8c4.8-2.3,8.6-5.6,11.9-10c-2.7-2.2-5.5-4-8.1-5.4
		l1.5-1.6c2.9,1.8,4.4,2.8,7.8,5.2c1.4-2.2,2.5-4.4,3.5-7c0.8-1.8,0.9-2.3,1.1-3.2L988.6,64.5z"/>
	<path class="st6" d="M997.2,74.1c0.9,0.1,1.7,0.2,3.7,0.2h17.4c2.2,0,2.7,0,3.6-0.2v2.4c-1-0.1-1.7-0.1-3.7-0.1h-17.4
		c-2.2,0-2.8,0-3.7,0.1V74.1z"/>
	<path class="st6" d="M1030.1,71c2.8,1.2,5,2.3,7.6,3.9l-1.2,2c-2.2-1.6-4.9-3.1-7.7-4.1L1030.1,71z M1029.3,84.7
		c1.9,0,5.1-0.7,8.1-1.9c3.7-1.4,6.6-3.5,9-6.7c1.7-2.2,2.7-4.1,3.6-6.8c0.8,0.8,1.1,1,1.9,1.6c-2.6,6.2-6.3,10.3-11.5,12.9
		c-2.1,1-5.1,2.1-7.6,2.6c-0.5,0.1-1,0.2-1.6,0.3s-0.7,0.2-1.2,0.3L1029.3,84.7z M1032.4,63.9c2.9,1.2,4.9,2.2,7.4,3.8l-1.2,2
		c-2.1-1.6-5.2-3.2-7.4-4L1032.4,63.9z M1048.6,62.8c1.3,1.5,2,2.5,3,4.2l-1.5,0.8c-1-1.8-1.7-2.7-3-4.3L1048.6,62.8z M1051.5,61.3
		c1.3,1.4,2,2.5,3,4.2l-1.6,0.8c-1-1.8-1.7-2.7-3-4.3L1051.5,61.3z"/>
</g>
</svg>
